<svg width="17" height="19" viewBox="0 0 17 19" fill="none" xmlns="http://www.w3.org/2000/svg">
<path d="M1.57227 17.4167V16.4271C1.57227 15.5174 1.75144 14.6166 2.09956 13.7762C2.44768 12.9358 2.95792 12.1721 3.60116 11.5289C4.2444 10.8857 5.00804 10.3754 5.84847 10.0273C6.6889 9.67917 7.58967 9.5 8.49935 9.5C9.40903 9.5 10.3098 9.67917 11.1502 10.0273C11.9907 10.3754 12.7543 10.8857 13.3975 11.5289C14.0408 12.1721 14.551 12.9358 14.8991 13.7762C15.2473 14.6166 15.4264 15.5174 15.4264 16.4271V17.4167" stroke="#6F757E" stroke-width="2" stroke-linecap="square"/>
<path d="M8.49935 9.50016C9.54916 9.50016 10.556 9.08313 11.2983 8.34079C12.0406 7.59846 12.4577 6.59164 12.4577 5.54183C12.4577 4.49201 12.0406 3.4852 11.2983 2.74286C10.556 2.00053 9.54916 1.5835 8.49935 1.5835C7.44953 1.5835 6.44272 2.00053 5.70038 2.74286C4.95805 3.4852 4.54102 4.49201 4.54102 5.54183C4.54102 6.59164 4.95805 7.59846 5.70038 8.34079C6.44272 9.08313 7.44953 9.50016 8.49935 9.50016V9.50016Z" stroke="#6F757E" stroke-width="2" stroke-linecap="square"/>
</svg>
