<svg width="18" height="16" viewBox="0 0 18 16" fill="none" xmlns="http://www.w3.org/2000/svg">
<path d="M3.4185 4.25L6.94425 0.7235C7.0935 0.575 7.28925 0.5 7.485 0.5C7.94475 0.5 8.25 0.87875 8.25 1.27175C8.25 1.45925 8.181 1.64975 8.02575 1.805L5.58075 4.25H3.4185ZM12.4193 4.25H14.5815L11.0557 0.7235C10.9065 0.575 10.7108 0.5 10.515 0.5C10.0553 0.5 9.75 0.87875 9.75 1.27175C9.75 1.45925 9.819 1.64975 9.97425 1.805L12.4193 4.25ZM0 5.75V7.25H0.48225C0.88275 7.25 1.248 7.478 1.42425 7.838L4.5 15.5H13.5L16.5765 7.8395C16.7512 7.47875 17.118 7.25 17.5185 7.25H18V5.75H0Z" fill="#6F757E"/>
</svg>
