<svg width="21" height="21" viewBox="0 0 21 21" fill="none" xmlns="http://www.w3.org/2000/svg">
<path d="M11.75 1.75L11.75 9.25H19.25C19.25 7.26088 18.4599 5.35322 17.0533 3.9467C15.6468 2.54018 13.7391 1.75 11.75 1.75Z" stroke="#6F757E" stroke-width="2" stroke-linecap="square"/>
<path d="M9.25 4.25C7.76664 4.25 6.31659 4.68987 5.08323 5.51398C3.84986 6.33809 2.88856 7.50943 2.32091 8.87987C1.75325 10.2503 1.60472 11.7583 1.89411 13.2132C2.1835 14.668 2.89781 16.0044 3.9467 17.0533C4.9956 18.1022 6.33197 18.8165 7.78683 19.1059C9.24168 19.3953 10.7497 19.2468 12.1201 18.6791C13.4906 18.1114 14.6619 17.1501 15.486 15.9168C16.3101 14.6834 16.75 13.2334 16.75 11.75H9.25V4.25Z" stroke="#6F757E" stroke-width="2" stroke-linecap="square"/>
</svg>
