<svg width="16" height="18" viewBox="0 0 16 18" fill="none" xmlns="http://www.w3.org/2000/svg">
<path d="M10.3527 2.95875C9.86975 2.67825 9.572 2.15625 9.57275 1.59375V1.5915C9.57275 0.7125 8.8685 0 8 0C7.1315 0 6.42725 0.7125 6.42725 1.5915V1.59375C6.428 2.157 6.13025 2.67825 5.6465 2.95875C2.14625 4.99275 4.15775 11.745 0.5 12.9382V14.25H15.5V12.9382C11.8422 11.745 13.8538 4.99275 10.3527 2.95875ZM5.30675 12H3.89525C4.829 9.94425 4.5545 5.241 6.8 4.00875C5.47925 5.559 6.0875 9.63675 5.30675 12ZM8 2.25C7.586 2.25 7.25 1.914 7.25 1.5C7.25 1.08675 7.586 0.75 8 0.75C8.414 0.75 8.75 1.08675 8.75 1.5C8.75 1.914 8.414 2.25 8 2.25ZM5.75 15.75H10.25C10.25 16.9485 9.20525 18 8.02175 18C6.8375 18 5.75 16.9485 5.75 15.75Z" fill="#6F757E"/>
</svg>
