<svg width="19" height="20" viewBox="0 0 19 20" fill="none" xmlns="http://www.w3.org/2000/svg">
<path d="M17.0556 16.9218V18.0329H1.50003C1.50003 18.0329 1.5 17.2165 1.5 16.9218V2.47732V1.36621H13.7222C14.0115 1.36663 14.2892 1.47983 14.4963 1.68177L16.7185 3.81732C16.8246 3.92074 16.909 4.04433 16.9666 4.18083C17.0242 4.31733 17.054 4.46397 17.0541 4.61214L17.0556 16.9218Z" stroke="#6F757E" stroke-width="2" stroke-linecap="square"/>
<path d="M4.83398 6.36621V14.6995H13.7229" stroke="#6F757E" stroke-width="2" stroke-linecap="square"/>
<path d="M5.20508 12.3224L7.32324 10.1528C7.59195 9.90865 7.94201 9.77336 8.30509 9.77336C8.66817 9.77336 9.01822 9.90865 9.28694 10.1528L9.82472 10.655C9.97873 10.7961 10.1614 10.9022 10.3602 10.9661C10.559 11.03 10.7692 11.0502 10.9766 11.0254C11.182 11.004 11.3801 10.9373 11.5567 10.8303C11.7333 10.7232 11.884 10.5784 11.998 10.4062L13.1625 8.58838" stroke="#6F757E" stroke-width="2" stroke-linecap="square"/>
</svg>
