<svg width="19" height="20" viewBox="0 0 19 20" fill="none" xmlns="http://www.w3.org/2000/svg">
<path d="M9.501 8.43488C13.8735 8.43488 17.418 6.86781 17.418 4.93473C17.418 3.00164 13.8735 1.43457 9.501 1.43457C5.12855 1.43457 1.58398 3.00164 1.58398 4.93473C1.58398 6.86781 5.12855 8.43488 9.501 8.43488Z" stroke="#6F757E" stroke-width="2" stroke-linecap="square"/>
<path d="M1.58398 4.93457V10.184C1.58398 12.1169 5.1287 13.6842 9.501 13.6842C13.8733 13.6842 17.418 12.1177 17.418 10.184V4.93457" stroke="#6F757E" stroke-width="2" stroke-linecap="square"/>
<path d="M1.58398 10.1841V15.4343C1.58398 17.3672 5.1287 18.9345 9.501 18.9345C13.8733 18.9345 17.418 17.3672 17.418 15.4343V10.1841" stroke="#6F757E" stroke-width="2" stroke-linecap="square"/>
</svg>
