<svg width="14" height="14" viewBox="0 0 14 14" fill="none" xmlns="http://www.w3.org/2000/svg">
<path d="M9.64732 10.3542C8.66132 11.1795 7.39132 11.6775 6.00665 11.6775C2.87532 11.6775 0.333984 9.13616 0.333984 6.0055C0.333984 2.87483 2.87532 0.333496 6.00665 0.333496C9.13665 0.333496 11.6787 2.87483 11.6787 6.0055C11.6787 7.39083 11.1807 8.6615 10.3553 9.64616L13.5213 12.8128C13.6187 12.9102 13.6673 13.0382 13.6673 13.1668C13.6673 13.5582 13.3093 13.6668 13.1673 13.6668C13.0393 13.6668 12.9113 13.6182 12.8133 13.5202L9.64732 10.3542ZM6.00665 1.33416C3.42798 1.33416 1.33532 3.4275 1.33532 6.0055C1.33532 8.5835 3.42798 10.6768 6.00665 10.6768C8.58398 10.6768 10.678 8.5835 10.678 6.0055C10.678 3.4275 8.58398 1.33416 6.00665 1.33416Z" fill="#6F757E"/>
</svg>
