<svg width="21" height="20" viewBox="0 0 21 20" fill="none" xmlns="http://www.w3.org/2000/svg">
<path d="M17.9035 9.99984C17.9035 9.27804 17.7891 8.58189 17.5777 7.92676L18.761 6.96009L17.3946 4.70625L15.9152 5.2024C14.9231 4.18702 13.6241 3.4524 12.1554 3.13189L11.866 1.6665H9.13328L8.8452 3.13189C7.37655 3.4524 6.07751 4.18702 5.0854 5.2024L3.60463 4.70625L2.23828 6.96009L3.42155 7.92676C3.2102 8.58189 3.09578 9.27804 3.09578 9.99984C3.09578 10.7216 3.2102 11.4178 3.42155 12.0729L2.23828 13.0396L3.60463 15.2934L5.08405 14.7973C6.07617 15.8127 7.3752 16.5473 8.84386 16.8678L9.13328 18.3332H11.866L12.1541 16.8678C13.6227 16.5473 14.9217 15.8127 15.9139 14.7973L17.3933 15.2934L18.7596 13.0396L17.5764 12.0729C17.7891 11.4178 17.9035 10.7216 17.9035 9.99984ZM10.4996 13.205C8.64059 13.205 7.13424 11.7704 7.13424 9.99984C7.13424 8.22932 8.64059 6.79471 10.4996 6.79471C12.3587 6.79471 13.865 8.22932 13.865 9.99984C13.865 11.7704 12.3587 13.205 10.4996 13.205Z" stroke="#6F757E" stroke-width="2" stroke-linecap="square"/>
</svg>
