<svg width="18" height="17" viewBox="0 0 18 17" fill="none" xmlns="http://www.w3.org/2000/svg">
<path d="M14.625 10.625C12.7627 10.625 11.25 12.0523 11.25 13.8125C11.25 15.5727 12.7627 17 14.625 17C16.4872 17 18 15.5727 18 13.8125C18 12.0523 16.4872 10.625 14.625 10.625ZM16.5 14.1667H15V15.5833H14.25V14.1667H12.75V13.4583H14.25V12.0417H15V13.4583H16.5V14.1667ZM11.115 17H0.00375L0 16.121C0 14.336 0.14925 13.3053 2.3835 12.818C4.90725 12.2676 7.3995 11.7746 6.201 9.68858C2.65125 3.50554 5.1885 0 9 0C14.0632 0 14.6295 5.37979 11.73 9.68929C10.761 11.1279 9.75 12.2605 9.75 13.8125C9.75 15.05 10.272 16.172 11.115 17Z" fill="#6F757E"/>
</svg>
