<svg width="481" height="560" viewBox="0 0 481 560" fill="none" xmlns="http://www.w3.org/2000/svg">
<g clip-path="url(#clip0_21_1085)">
<rect width="480" height="560" transform="translate(0.769531)" fill="#FF8E29"/>
<circle cx="365.77" cy="445" r="50" fill="url(#paint0_linear_21_1085)"/>
<circle cx="200.77" cy="99" r="200" fill="url(#paint1_linear_21_1085)"/>
<circle cx="-17.2305" cy="170" r="175" fill="url(#paint2_linear_21_1085)"/>
<path d="M63.4564 429.67H56.6388V437H52.743V419.11H56.6388V426.235H63.4564V419.11H67.3521V437H63.4564V429.67ZM76.6977 437.308C75.6725 437.308 74.7583 437.145 73.9553 436.821C73.1522 436.479 72.4687 436.009 71.9049 435.411C71.3581 434.796 70.9395 434.053 70.649 433.181C70.3756 432.31 70.2389 431.336 70.2389 430.259C70.2389 429.2 70.3756 428.243 70.649 427.389C70.9224 426.517 71.3239 425.774 71.8536 425.159C72.4004 424.544 73.0668 424.074 73.8528 423.749C74.6387 423.408 75.5358 423.237 76.5439 423.237C77.6545 423.237 78.6028 423.425 79.3888 423.801C80.1919 424.176 80.8412 424.681 81.3367 425.313C81.8493 425.945 82.2167 426.68 82.4388 427.517C82.678 428.337 82.7976 429.2 82.7976 430.106V431.233H74.1603V431.438C74.1603 432.327 74.3995 433.036 74.878 433.566C75.3564 434.078 76.1082 434.334 77.1334 434.334C77.9194 434.334 78.5601 434.181 79.0556 433.873C79.5512 433.548 80.0125 433.164 80.4397 432.72L82.3363 435.078C81.7382 435.778 80.9523 436.325 79.9783 436.718C79.0215 437.111 77.9279 437.308 76.6977 437.308ZM76.6208 426.03C75.8519 426.03 75.2453 426.287 74.8011 426.799C74.3739 427.295 74.1603 427.961 74.1603 428.798V429.003H78.8762V428.773C78.8762 427.953 78.6883 427.295 78.3124 426.799C77.9536 426.287 77.3897 426.03 76.6208 426.03ZM93.5286 423.544H97.0655L91.8883 439.076C91.5465 440.118 91.0596 440.887 90.4274 441.383C89.8122 441.878 88.9237 442.126 87.7618 442.126H85.4039V439.179H87.9412L88.4026 437.692L83.6867 423.544H87.4543L89.4278 429.824L90.4017 433.719H90.5555L91.5551 429.824L93.5286 423.544ZM55.5623 470L51.5128 452.11H55.3573L57.0489 460.696L57.9972 465.669H58.0741L59.2018 460.696L61.1753 452.11H65.4299L67.429 460.696L68.5311 465.669H68.608L69.5563 460.696L71.2735 452.11H74.9643L70.8122 470H66.3782L64.1228 460.312L63.2513 456.39H63.1745L62.2774 460.312L60.022 470H55.5623ZM82.4294 470.308C81.4042 470.308 80.4901 470.145 79.687 469.821C78.8839 469.479 78.2004 469.009 77.6366 468.411C77.0898 467.796 76.6712 467.053 76.3807 466.181C76.1073 465.31 75.9706 464.336 75.9706 463.259C75.9706 462.2 76.1073 461.243 76.3807 460.389C76.6541 459.517 77.0556 458.774 77.5853 458.159C78.1321 457.544 78.7985 457.074 79.5845 456.749C80.3704 456.408 81.2675 456.237 82.2756 456.237C83.3862 456.237 84.3346 456.425 85.1205 456.801C85.9236 457.176 86.5729 457.681 87.0684 458.313C87.581 458.945 87.9484 459.68 88.1705 460.517C88.4097 461.337 88.5293 462.2 88.5293 463.106V464.233H79.892V464.438C79.892 465.327 80.1312 466.036 80.6097 466.566C81.0881 467.078 81.8399 467.334 82.8651 467.334C83.6511 467.334 84.2918 467.181 84.7873 466.873C85.2829 466.548 85.7442 466.164 86.1714 465.72L88.068 468.078C87.47 468.778 86.684 469.325 85.71 469.718C84.7532 470.111 83.6596 470.308 82.4294 470.308ZM82.3525 459.03C81.5836 459.03 80.977 459.287 80.5328 459.799C80.1056 460.295 79.892 460.961 79.892 461.798V462.003H84.6079V461.773C84.6079 460.953 84.42 460.295 84.0441 459.799C83.6853 459.287 83.1214 459.03 82.3525 459.03ZM94.9759 470C93.6773 470 92.7204 469.684 92.1053 469.052C91.5073 468.419 91.2083 467.505 91.2083 466.309V451.034H95.0015V467.053H96.6931V470H94.9759ZM104.401 470.308C103.393 470.308 102.496 470.145 101.71 469.821C100.924 469.479 100.266 469.009 99.7362 468.411C99.2066 467.796 98.805 467.053 98.5316 466.181C98.2582 465.31 98.1216 464.336 98.1216 463.259C98.1216 462.183 98.2582 461.217 98.5316 460.363C98.805 459.492 99.2066 458.748 99.7362 458.133C100.266 457.518 100.924 457.048 101.71 456.724C102.496 456.399 103.393 456.237 104.401 456.237C105.768 456.237 106.904 456.544 107.81 457.159C108.732 457.774 109.39 458.637 109.783 459.748L106.708 461.081C106.588 460.568 106.34 460.132 105.964 459.774C105.588 459.415 105.067 459.235 104.401 459.235C103.632 459.235 103.051 459.492 102.658 460.004C102.265 460.5 102.069 461.175 102.069 462.029V464.541C102.069 465.395 102.265 466.07 102.658 466.566C103.051 467.061 103.632 467.309 104.401 467.309C105.084 467.309 105.623 467.129 106.016 466.771C106.426 466.395 106.725 465.908 106.913 465.31L109.86 466.591C109.416 467.873 108.724 468.812 107.784 469.411C106.861 470.009 105.734 470.308 104.401 470.308ZM117.542 470.308C116.551 470.308 115.662 470.145 114.876 469.821C114.107 469.496 113.45 469.026 112.903 468.411C112.373 467.796 111.963 467.053 111.673 466.181C111.382 465.31 111.237 464.336 111.237 463.259C111.237 462.183 111.382 461.209 111.673 460.337C111.963 459.466 112.373 458.731 112.903 458.133C113.45 457.518 114.107 457.048 114.876 456.724C115.662 456.399 116.551 456.237 117.542 456.237C118.533 456.237 119.413 456.399 120.182 456.724C120.968 457.048 121.626 457.518 122.155 458.133C122.702 458.731 123.121 459.466 123.411 460.337C123.702 461.209 123.847 462.183 123.847 463.259C123.847 464.336 123.702 465.31 123.411 466.181C123.121 467.053 122.702 467.796 122.155 468.411C121.626 469.026 120.968 469.496 120.182 469.821C119.413 470.145 118.533 470.308 117.542 470.308ZM117.542 467.309C118.294 467.309 118.875 467.078 119.285 466.617C119.695 466.155 119.9 465.498 119.9 464.643V461.901C119.9 461.047 119.695 460.389 119.285 459.927C118.875 459.466 118.294 459.235 117.542 459.235C116.79 459.235 116.209 459.466 115.799 459.927C115.389 460.389 115.184 461.047 115.184 461.901V464.643C115.184 465.498 115.389 466.155 115.799 466.617C116.209 467.078 116.79 467.309 117.542 467.309ZM126.55 470V456.544H130.343V458.825H130.497C130.736 458.108 131.146 457.501 131.727 457.006C132.308 456.493 133.102 456.237 134.11 456.237C135.033 456.237 135.819 456.467 136.468 456.929C137.118 457.39 137.588 458.065 137.878 458.953H137.955C138.075 458.578 138.254 458.227 138.493 457.903C138.75 457.561 139.057 457.27 139.416 457.031C139.775 456.792 140.176 456.604 140.62 456.467C141.065 456.314 141.543 456.237 142.056 456.237C143.354 456.237 144.345 456.698 145.029 457.621C145.729 458.543 146.08 459.859 146.08 461.568V470H142.286V461.875C142.286 460.167 141.671 459.312 140.441 459.312C139.877 459.312 139.365 459.475 138.903 459.799C138.442 460.124 138.211 460.619 138.211 461.286V470H134.418V461.875C134.418 460.167 133.803 459.312 132.573 459.312C132.299 459.312 132.026 459.355 131.753 459.44C131.496 459.509 131.257 459.628 131.035 459.799C130.83 459.97 130.659 460.184 130.522 460.44C130.403 460.679 130.343 460.961 130.343 461.286V470H126.55ZM155.064 470.308C154.039 470.308 153.125 470.145 152.322 469.821C151.519 469.479 150.835 469.009 150.272 468.411C149.725 467.796 149.306 467.053 149.016 466.181C148.742 465.31 148.606 464.336 148.606 463.259C148.606 462.2 148.742 461.243 149.016 460.389C149.289 459.517 149.691 458.774 150.22 458.159C150.767 457.544 151.433 457.074 152.219 456.749C153.005 456.408 153.903 456.237 154.911 456.237C156.021 456.237 156.97 456.425 157.756 456.801C158.559 457.176 159.208 457.681 159.703 458.313C160.216 458.945 160.583 459.68 160.806 460.517C161.045 461.337 161.164 462.2 161.164 463.106V464.233H152.527V464.438C152.527 465.327 152.766 466.036 153.245 466.566C153.723 467.078 154.475 467.334 155.5 467.334C156.286 467.334 156.927 467.181 157.422 466.873C157.918 466.548 158.379 466.164 158.806 465.72L160.703 468.078C160.105 468.778 159.319 469.325 158.345 469.718C157.388 470.111 156.295 470.308 155.064 470.308ZM154.988 459.03C154.219 459.03 153.612 459.287 153.168 459.799C152.741 460.295 152.527 460.961 152.527 461.798V462.003H157.243V461.773C157.243 460.953 157.055 460.295 156.679 459.799C156.32 459.287 155.756 459.03 154.988 459.03ZM52.743 485.11H61.4316C62.9182 485.11 64.0715 485.529 64.8917 486.366C65.7289 487.203 66.1475 488.314 66.1475 489.698C66.1475 490.381 66.0536 490.962 65.8656 491.441C65.6947 491.919 65.4555 492.312 65.148 492.62C64.8575 492.927 64.5072 493.158 64.0971 493.312C63.7041 493.449 63.277 493.525 62.8156 493.543V493.696C63.2428 493.696 63.6871 493.773 64.1484 493.927C64.6268 494.081 65.0625 494.329 65.4555 494.67C65.8485 494.995 66.1732 495.422 66.4295 495.952C66.7028 496.481 66.8395 497.131 66.8395 497.9C66.8395 498.6 66.7199 499.267 66.4807 499.899C66.2586 500.514 65.9425 501.052 65.5324 501.513C65.1223 501.975 64.6354 502.342 64.0715 502.616C63.5076 502.872 62.8925 503 62.2261 503H52.743V485.11ZM56.6388 499.719H61.1241C61.6367 499.719 62.0382 499.583 62.3287 499.309C62.6362 499.019 62.79 498.617 62.79 498.105V497.233C62.79 496.721 62.6362 496.328 62.3287 496.054C62.0382 495.764 61.6367 495.619 61.1241 495.619H56.6388V499.719ZM56.6388 492.44H60.5089C61.0215 492.44 61.4231 492.295 61.7135 492.005C62.004 491.714 62.1493 491.313 62.1493 490.8V490.031C62.1493 489.519 62.004 489.117 61.7135 488.827C61.4231 488.536 61.0215 488.391 60.5089 488.391H56.6388V492.44ZM79.5775 503C78.894 503 78.3216 502.786 77.8602 502.359C77.416 501.932 77.1341 501.36 77.0145 500.642H76.8607C76.6556 501.513 76.2028 502.18 75.5023 502.641C74.8017 503.085 73.9388 503.308 72.9137 503.308C71.5638 503.308 70.5301 502.949 69.8124 502.231C69.0948 501.513 68.736 500.565 68.736 499.386C68.736 497.968 69.2486 496.917 70.2738 496.234C71.316 495.533 72.7257 495.183 74.5027 495.183H76.63V494.337C76.63 493.688 76.4591 493.175 76.1174 492.799C75.7757 492.406 75.2033 492.21 74.4002 492.21C73.6484 492.21 73.0503 492.372 72.6061 492.697C72.1618 493.021 71.7945 493.389 71.504 493.799L69.2486 491.8C69.7953 490.997 70.4788 490.373 71.299 489.929C72.1362 489.467 73.2639 489.237 74.6821 489.237C76.5958 489.237 78.0311 489.655 78.988 490.493C79.9448 491.33 80.4232 492.552 80.4232 494.158V500.053H81.6791V503H79.5775ZM74.3233 500.668C74.9555 500.668 75.4937 500.531 75.938 500.258C76.3993 499.984 76.63 499.54 76.63 498.925V497.336H74.7846C73.2981 497.336 72.5548 497.84 72.5548 498.848V499.232C72.5548 499.728 72.7086 500.095 73.0162 500.334C73.3237 500.557 73.7594 500.668 74.3233 500.668ZM89.6586 503.308C88.6505 503.308 87.7535 503.145 86.9675 502.821C86.1815 502.479 85.5237 502.009 84.994 501.411C84.4643 500.796 84.0628 500.053 83.7894 499.181C83.516 498.31 83.3793 497.336 83.3793 496.259C83.3793 495.183 83.516 494.217 83.7894 493.363C84.0628 492.492 84.4643 491.748 84.994 491.133C85.5237 490.518 86.1815 490.048 86.9675 489.724C87.7535 489.399 88.6505 489.237 89.6586 489.237C91.0256 489.237 92.1618 489.544 93.0674 490.159C93.9901 490.774 94.648 491.637 95.0409 492.748L91.9653 494.081C91.8457 493.568 91.598 493.132 91.2221 492.774C90.8462 492.415 90.325 492.235 89.6586 492.235C88.8897 492.235 88.3088 492.492 87.9158 493.004C87.5228 493.5 87.3263 494.175 87.3263 495.029V497.541C87.3263 498.395 87.5228 499.07 87.9158 499.566C88.3088 500.061 88.8897 500.309 89.6586 500.309C90.3421 500.309 90.8803 500.129 91.2733 499.771C91.6834 499.395 91.9824 498.908 92.1704 498.31L95.1178 499.591C94.6736 500.873 93.9816 501.812 93.0418 502.411C92.1191 503.009 90.9914 503.308 89.6586 503.308ZM97.4656 484.034H101.259V495.234H101.413L103.079 492.748L105.77 489.544H109.973L105.488 494.696L110.486 503H105.975L102.95 497.31L101.259 499.207V503H97.4656V484.034Z" fill="white"/>
</g>
<defs>
<linearGradient id="paint0_linear_21_1085" x1="415.77" y1="443.936" x2="319.071" y2="443.936" gradientUnits="userSpaceOnUse">
<stop stop-color="#FF8E29"/>
<stop offset="1" stop-color="#FFB26D"/>
</linearGradient>
<linearGradient id="paint1_linear_21_1085" x1="351.77" y1="6.5" x2="0.769531" y2="206.5" gradientUnits="userSpaceOnUse">
<stop stop-color="#FA7C0B"/>
<stop offset="1" stop-color="#FFBE85"/>
</linearGradient>
<linearGradient id="paint2_linear_21_1085" x1="102.27" y1="86" x2="-17.2305" y2="345" gradientUnits="userSpaceOnUse">
<stop stop-color="#FF8B23"/>
<stop offset="1" stop-color="#FAB67A"/>
</linearGradient>
<clipPath id="clip0_21_1085">
<rect width="480" height="560" fill="white" transform="translate(0.769531)"/>
</clipPath>
</defs>
</svg>
