<svg width="480" height="560" viewBox="0 0 480 560" fill="none" xmlns="http://www.w3.org/2000/svg">
<g clip-path="url(#clip0_35_1185)">
<rect width="480" height="560" fill="#FF8E29"/>
<circle cx="364.77" cy="445" r="50" fill="url(#paint0_linear_35_1185)"/>
<circle cx="199.77" cy="99" r="200" fill="url(#paint1_linear_35_1185)"/>
<circle cx="-18.2305" cy="170" r="175" fill="url(#paint2_linear_35_1185)"/>
<path d="M56.1258 437V430.003L50.0002 419.11H54.3573L58.2018 426.235H58.2531L61.9438 419.11H66.1727L60.0472 429.977V437H56.1258ZM72.1149 437.308C71.1239 437.308 70.2354 437.145 69.4494 436.821C68.6805 436.496 68.0226 436.026 67.4759 435.411C66.9462 434.796 66.5361 434.053 66.2456 433.181C65.9551 432.31 65.8099 431.336 65.8099 430.259C65.8099 429.183 65.9551 428.209 66.2456 427.337C66.5361 426.466 66.9462 425.731 67.4759 425.133C68.0226 424.518 68.6805 424.048 69.4494 423.724C70.2354 423.399 71.1239 423.237 72.1149 423.237C73.1059 423.237 73.9859 423.399 74.7548 423.724C75.5408 424.048 76.1986 424.518 76.7283 425.133C77.2751 425.731 77.6937 426.466 77.9842 427.337C78.2746 428.209 78.4199 429.183 78.4199 430.259C78.4199 431.336 78.2746 432.31 77.9842 433.181C77.6937 434.053 77.2751 434.796 76.7283 435.411C76.1986 436.026 75.5408 436.496 74.7548 436.821C73.9859 437.145 73.1059 437.308 72.1149 437.308ZM72.1149 434.309C72.8667 434.309 73.4476 434.078 73.8577 433.617C74.2678 433.155 74.4728 432.498 74.4728 431.643V428.901C74.4728 428.047 74.2678 427.389 73.8577 426.927C73.4476 426.466 72.8667 426.235 72.1149 426.235C71.3631 426.235 70.7821 426.466 70.372 426.927C69.962 427.389 69.7569 428.047 69.7569 428.901V431.643C69.7569 432.498 69.962 433.155 70.372 433.617C70.7821 434.078 71.3631 434.309 72.1149 434.309ZM89.0679 434.745H88.9398C88.8202 435.086 88.6579 435.411 88.4528 435.719C88.2649 436.026 88.0171 436.299 87.7095 436.539C87.402 436.778 87.0346 436.966 86.6075 437.103C86.1974 437.239 85.7189 437.308 85.1722 437.308C83.7882 437.308 82.7373 436.855 82.0197 435.949C81.3191 435.026 80.9689 433.711 80.9689 432.002V423.544H84.7621V431.669C84.7621 432.489 84.9073 433.121 85.1978 433.566C85.4883 434.01 85.9838 434.232 86.6843 434.232C86.9748 434.232 87.2653 434.189 87.5558 434.104C87.8462 434.018 88.1025 433.899 88.3247 433.745C88.5468 433.574 88.7262 433.369 88.8629 433.13C88.9996 432.891 89.0679 432.609 89.0679 432.284V423.544H92.8612V437H89.0679V434.745ZM96.3905 437V423.544H100.184V426.466H100.312C100.38 426.09 100.5 425.731 100.671 425.39C100.842 425.031 101.064 424.715 101.337 424.441C101.628 424.168 101.969 423.954 102.362 423.801C102.755 423.63 103.217 423.544 103.746 423.544H104.413V427.081H103.464C102.354 427.081 101.525 427.226 100.978 427.517C100.449 427.807 100.184 428.346 100.184 429.132V437H96.3905ZM51.743 470V452.11H60.2009C61.0382 452.11 61.79 452.255 62.4564 452.546C63.1228 452.819 63.6866 453.204 64.148 453.699C64.6264 454.195 64.9938 454.801 65.2501 455.519C65.5064 456.22 65.6345 456.989 65.6345 457.826C65.6345 458.68 65.5064 459.458 65.2501 460.158C64.9938 460.859 64.6264 461.457 64.148 461.952C63.6866 462.448 63.1228 462.841 62.4564 463.131C61.79 463.405 61.0382 463.541 60.2009 463.541H55.6388V470H51.743ZM55.6388 460.158H59.7396C60.3205 460.158 60.7733 460.013 61.098 459.722C61.4397 459.415 61.6106 458.971 61.6106 458.39V457.262C61.6106 456.681 61.4397 456.245 61.098 455.955C60.7733 455.647 60.3205 455.493 59.7396 455.493H55.6388V460.158ZM77.9267 470C77.2432 470 76.6708 469.786 76.2095 469.359C75.7652 468.932 75.4833 468.36 75.3637 467.642H75.2099C75.0049 468.513 74.5521 469.18 73.8515 469.641C73.151 470.085 72.2881 470.308 71.2629 470.308C69.913 470.308 68.8793 469.949 68.1617 469.231C67.444 468.513 67.0852 467.565 67.0852 466.386C67.0852 464.968 67.5978 463.917 68.623 463.234C69.6653 462.533 71.0749 462.183 72.8519 462.183H74.9792V461.337C74.9792 460.688 74.8084 460.175 74.4666 459.799C74.1249 459.406 73.5525 459.21 72.7494 459.21C71.9976 459.21 71.3996 459.372 70.9553 459.697C70.5111 460.021 70.1437 460.389 69.8532 460.799L67.5978 458.8C68.1446 457.997 68.828 457.373 69.6482 456.929C70.4854 456.467 71.6132 456.237 73.0314 456.237C74.9451 456.237 76.3803 456.655 77.3372 457.493C78.2941 458.33 78.7725 459.552 78.7725 461.158V467.053H80.0283V470H77.9267ZM72.6725 467.668C73.3047 467.668 73.843 467.531 74.2872 467.258C74.7486 466.984 74.9792 466.54 74.9792 465.925V464.336H73.1339C71.6473 464.336 70.9041 464.84 70.9041 465.848V466.232C70.9041 466.728 71.0578 467.095 71.3654 467.334C71.673 467.557 72.1087 467.668 72.6725 467.668ZM87.1365 470.308C85.8379 470.308 84.7443 470.103 83.8558 469.692C82.9673 469.265 82.1728 468.667 81.4722 467.898L83.702 465.643C84.1805 466.173 84.7102 466.591 85.2911 466.899C85.8721 467.206 86.5299 467.36 87.2646 467.36C88.0164 467.36 88.5376 467.249 88.828 467.027C89.1185 466.788 89.2638 466.472 89.2638 466.079C89.2638 465.446 88.811 465.07 87.9054 464.951L86.4445 464.771C83.4201 464.396 81.9079 463.012 81.9079 460.619C81.9079 459.97 82.0276 459.381 82.2668 458.851C82.5231 458.304 82.8733 457.843 83.3176 457.467C83.7789 457.074 84.3257 456.775 84.9579 456.57C85.6072 456.348 86.3334 456.237 87.1365 456.237C87.837 456.237 88.4521 456.288 88.9818 456.39C89.5286 456.476 90.007 456.613 90.4171 456.801C90.8443 456.971 91.2287 457.194 91.5705 457.467C91.9293 457.723 92.2796 458.014 92.6213 458.338L90.4427 460.568C90.0156 460.141 89.5286 459.808 88.9818 459.569C88.4521 459.312 87.9054 459.184 87.3415 459.184C86.6922 459.184 86.2309 459.287 85.9575 459.492C85.6841 459.697 85.5474 459.97 85.5474 460.312C85.5474 460.671 85.6414 460.953 85.8293 461.158C86.0344 461.346 86.4103 461.482 86.9571 461.568L88.4692 461.773C91.4252 462.166 92.9032 463.516 92.9032 465.822C92.9032 466.472 92.7665 467.07 92.4931 467.616C92.2198 468.163 91.8268 468.642 91.3142 469.052C90.8186 469.445 90.2121 469.752 89.4944 469.974C88.7939 470.196 88.0079 470.308 87.1365 470.308ZM99.8764 470.308C98.5778 470.308 97.4842 470.103 96.5957 469.692C95.7072 469.265 94.9127 468.667 94.2121 467.898L96.442 465.643C96.9204 466.173 97.4501 466.591 98.031 466.899C98.612 467.206 99.2698 467.36 100.005 467.36C100.756 467.36 101.277 467.249 101.568 467.027C101.858 466.788 102.004 466.472 102.004 466.079C102.004 465.446 101.551 465.07 100.645 464.951L99.1844 464.771C96.16 464.396 94.6479 463.012 94.6479 460.619C94.6479 459.97 94.7675 459.381 95.0067 458.851C95.263 458.304 95.6133 457.843 96.0575 457.467C96.5188 457.074 97.0656 456.775 97.6978 456.57C98.3471 456.348 99.0733 456.237 99.8764 456.237C100.577 456.237 101.192 456.288 101.722 456.39C102.269 456.476 102.747 456.613 103.157 456.801C103.584 456.971 103.969 457.194 104.31 457.467C104.669 457.723 105.019 458.014 105.361 458.338L103.183 460.568C102.755 460.141 102.269 459.808 101.722 459.569C101.192 459.312 100.645 459.184 100.081 459.184C99.4321 459.184 98.9708 459.287 98.6974 459.492C98.424 459.697 98.2873 459.97 98.2873 460.312C98.2873 460.671 98.3813 460.953 98.5692 461.158C98.7743 461.346 99.1502 461.482 99.697 461.568L101.209 461.773C104.165 462.166 105.643 463.516 105.643 465.822C105.643 466.472 105.506 467.07 105.233 467.616C104.96 468.163 104.567 468.642 104.054 469.052C103.559 469.445 102.952 469.752 102.234 469.974C101.534 470.196 100.748 470.308 99.8764 470.308ZM106.698 456.544H110.363L111.67 461.978L112.592 466.079H112.695L113.771 461.978L115.309 456.544H118.769L120.333 461.978L121.435 466.079H121.537L122.46 461.978L123.767 456.544H127.278L123.562 470H119.589L117.949 464.31L117.001 460.824H116.924L116.001 464.31L114.361 470H110.465L106.698 456.544ZM134.738 470.308C133.747 470.308 132.859 470.145 132.073 469.821C131.304 469.496 130.646 469.026 130.099 468.411C129.569 467.796 129.159 467.053 128.869 466.181C128.578 465.31 128.433 464.336 128.433 463.259C128.433 462.183 128.578 461.209 128.869 460.337C129.159 459.466 129.569 458.731 130.099 458.133C130.646 457.518 131.304 457.048 132.073 456.724C132.859 456.399 133.747 456.237 134.738 456.237C135.729 456.237 136.609 456.399 137.378 456.724C138.164 457.048 138.822 457.518 139.352 458.133C139.898 458.731 140.317 459.466 140.607 460.337C140.898 461.209 141.043 462.183 141.043 463.259C141.043 464.336 140.898 465.31 140.607 466.181C140.317 467.053 139.898 467.796 139.352 468.411C138.822 469.026 138.164 469.496 137.378 469.821C136.609 470.145 135.729 470.308 134.738 470.308ZM134.738 467.309C135.49 467.309 136.071 467.078 136.481 466.617C136.891 466.155 137.096 465.498 137.096 464.643V461.901C137.096 461.047 136.891 460.389 136.481 459.927C136.071 459.466 135.49 459.235 134.738 459.235C133.986 459.235 133.405 459.466 132.995 459.927C132.585 460.389 132.38 461.047 132.38 461.901V464.643C132.38 465.498 132.585 466.155 132.995 466.617C133.405 467.078 133.986 467.309 134.738 467.309ZM143.746 470V456.544H147.539V459.466H147.667C147.736 459.09 147.855 458.731 148.026 458.39C148.197 458.031 148.419 457.715 148.693 457.441C148.983 457.168 149.325 456.954 149.718 456.801C150.111 456.63 150.572 456.544 151.102 456.544H151.768V460.081H150.82C149.709 460.081 148.88 460.226 148.334 460.517C147.804 460.807 147.539 461.346 147.539 462.132V470H143.746ZM162.261 467.745H162.133C162.03 468.103 161.868 468.445 161.646 468.77C161.424 469.077 161.15 469.351 160.826 469.59C160.518 469.812 160.159 469.983 159.749 470.103C159.356 470.239 158.946 470.308 158.519 470.308C156.81 470.308 155.52 469.71 154.649 468.513C153.777 467.3 153.342 465.549 153.342 463.259C153.342 460.97 153.777 459.227 154.649 458.031C155.52 456.835 156.81 456.237 158.519 456.237C159.39 456.237 160.159 456.476 160.826 456.954C161.509 457.433 161.945 458.048 162.133 458.8H162.261V451.034H166.054V470H162.261V467.745ZM159.775 467.232C160.492 467.232 161.082 467.061 161.543 466.719C162.022 466.361 162.261 465.874 162.261 465.258V461.286C162.261 460.671 162.022 460.192 161.543 459.851C161.082 459.492 160.492 459.312 159.775 459.312C159.057 459.312 158.459 459.569 157.981 460.081C157.519 460.577 157.289 461.252 157.289 462.106V464.438C157.289 465.293 157.519 465.976 157.981 466.489C158.459 466.984 159.057 467.232 159.775 467.232ZM55.4338 485.11V496.08C55.4338 497.344 55.6815 498.293 56.177 498.925C56.6725 499.54 57.5012 499.848 58.6631 499.848C59.825 499.848 60.6537 499.54 61.1493 498.925C61.6448 498.293 61.8925 497.344 61.8925 496.08V485.11H65.6858V495.67C65.6858 496.985 65.5576 498.13 65.3013 499.104C65.0621 500.061 64.6606 500.856 64.0967 501.488C63.5328 502.103 62.8067 502.564 61.9182 502.872C61.0296 503.162 59.9446 503.308 58.6631 503.308C57.3816 503.308 56.2966 503.162 55.4081 502.872C54.5196 502.564 53.7934 502.103 53.2296 501.488C52.6657 500.856 52.2556 500.061 51.9993 499.104C51.7601 498.13 51.6405 496.985 51.6405 495.67V485.11H55.4338ZM69.3338 489.544H73.1271V491.8H73.2552C73.4432 491.048 73.8703 490.433 74.5367 489.954C75.2202 489.476 75.9976 489.237 76.8691 489.237C78.5777 489.237 79.8678 489.835 80.7392 491.031C81.6106 492.227 82.0463 493.97 82.0463 496.259C82.0463 498.549 81.6106 500.3 80.7392 501.513C79.8678 502.71 78.5777 503.308 76.8691 503.308C76.4248 503.308 76.0062 503.239 75.6132 503.103C75.2202 502.983 74.8614 502.812 74.5367 502.59C74.2292 502.351 73.9643 502.077 73.7422 501.77C73.5201 501.445 73.3577 501.103 73.2552 500.745H73.1271V508.126H69.3338V489.544ZM75.6132 500.232C76.3308 500.232 76.9203 499.984 77.3817 499.489C77.8601 498.976 78.0993 498.293 78.0993 497.438V495.106C78.0993 494.252 77.8601 493.577 77.3817 493.081C76.9203 492.569 76.3308 492.312 75.6132 492.312C74.8955 492.312 74.2975 492.492 73.8191 492.851C73.3577 493.192 73.1271 493.671 73.1271 494.286V498.258C73.1271 498.874 73.3577 499.361 73.8191 499.719C74.2975 500.061 74.8955 500.232 75.6132 500.232ZM93.1799 500.745H93.0518C92.9493 501.103 92.7869 501.445 92.5648 501.77C92.3427 502.077 92.0693 502.351 91.7447 502.59C91.4371 502.812 91.0783 502.983 90.6682 503.103C90.2752 503.239 89.8651 503.308 89.438 503.308C87.7293 503.308 86.4393 502.71 85.5678 501.513C84.6964 500.3 84.2607 498.549 84.2607 496.259C84.2607 493.97 84.6964 492.227 85.5678 491.031C86.4393 489.835 87.7293 489.237 89.438 489.237C90.3094 489.237 91.0783 489.476 91.7447 489.954C92.4281 490.433 92.8638 491.048 93.0518 491.8H93.1799V484.034H96.9732V503H93.1799V500.745ZM90.6938 500.232C91.4115 500.232 92.001 500.061 92.4623 499.719C92.9407 499.361 93.1799 498.874 93.1799 498.258V494.286C93.1799 493.671 92.9407 493.192 92.4623 492.851C92.001 492.492 91.4115 492.312 90.6938 492.312C89.9762 492.312 89.3782 492.569 88.8997 493.081C88.4384 493.577 88.2077 494.252 88.2077 495.106V497.438C88.2077 498.293 88.4384 498.976 88.8997 499.489C89.3782 499.984 89.9762 500.232 90.6938 500.232ZM110.465 503C109.781 503 109.209 502.786 108.748 502.359C108.303 501.932 108.021 501.36 107.902 500.642H107.748C107.543 501.513 107.09 502.18 106.39 502.641C105.689 503.085 104.826 503.308 103.801 503.308C102.451 503.308 101.417 502.949 100.7 502.231C99.9821 501.513 99.6233 500.565 99.6233 499.386C99.6233 497.968 100.136 496.917 101.161 496.234C102.203 495.533 103.613 495.183 105.39 495.183H107.517V494.337C107.517 493.688 107.346 493.175 107.005 492.799C106.663 492.406 106.091 492.21 105.288 492.21C104.536 492.21 103.938 492.372 103.493 492.697C103.049 493.021 102.682 493.389 102.391 493.799L100.136 491.8C100.683 490.997 101.366 490.373 102.186 489.929C103.024 489.467 104.151 489.237 105.569 489.237C107.483 489.237 108.918 489.655 109.875 490.493C110.832 491.33 111.311 492.552 111.311 494.158V500.053H112.566V503H110.465ZM105.211 500.668C105.843 500.668 106.381 500.531 106.825 500.258C107.287 499.984 107.517 499.54 107.517 498.925V497.336H105.672C104.185 497.336 103.442 497.84 103.442 498.848V499.232C103.442 499.728 103.596 500.095 103.903 500.334C104.211 500.557 104.647 500.668 105.211 500.668ZM119.678 503C118.362 503 117.363 502.667 116.679 502C116.013 501.334 115.68 500.36 115.68 499.079V492.492H113.783V489.544H114.732C115.244 489.544 115.594 489.425 115.782 489.185C115.97 488.929 116.064 488.57 116.064 488.109V485.905H119.473V489.544H122.139V492.492H119.473V500.053H121.934V503H119.678ZM130.287 503.308C129.261 503.308 128.347 503.145 127.544 502.821C126.741 502.479 126.058 502.009 125.494 501.411C124.947 500.796 124.528 500.053 124.238 499.181C123.965 498.31 123.828 497.336 123.828 496.259C123.828 495.2 123.965 494.243 124.238 493.389C124.511 492.517 124.913 491.774 125.443 491.159C125.989 490.544 126.656 490.074 127.442 489.749C128.228 489.408 129.125 489.237 130.133 489.237C131.243 489.237 132.192 489.425 132.978 489.801C133.781 490.176 134.43 490.681 134.926 491.313C135.438 491.945 135.806 492.68 136.028 493.517C136.267 494.337 136.387 495.2 136.387 496.106V497.233H127.749V497.438C127.749 498.327 127.988 499.036 128.467 499.566C128.945 500.078 129.697 500.334 130.722 500.334C131.508 500.334 132.149 500.181 132.645 499.873C133.14 499.548 133.601 499.164 134.029 498.72L135.925 501.078C135.327 501.778 134.541 502.325 133.567 502.718C132.61 503.111 131.517 503.308 130.287 503.308ZM130.21 492.03C129.441 492.03 128.834 492.287 128.39 492.799C127.963 493.295 127.749 493.961 127.749 494.798V495.003H132.465V494.773C132.465 493.953 132.277 493.295 131.901 492.799C131.542 492.287 130.979 492.03 130.21 492.03ZM147.318 500.745H147.19C147.088 501.103 146.925 501.445 146.703 501.77C146.481 502.077 146.208 502.351 145.883 502.59C145.575 502.812 145.217 502.983 144.807 503.103C144.414 503.239 144.003 503.308 143.576 503.308C141.868 503.308 140.578 502.71 139.706 501.513C138.835 500.3 138.399 498.549 138.399 496.259C138.399 493.97 138.835 492.227 139.706 491.031C140.578 489.835 141.868 489.237 143.576 489.237C144.448 489.237 145.217 489.476 145.883 489.954C146.566 490.433 147.002 491.048 147.19 491.8H147.318V484.034H151.112V503H147.318V500.745ZM144.832 500.232C145.55 500.232 146.139 500.061 146.601 499.719C147.079 499.361 147.318 498.874 147.318 498.258V494.286C147.318 493.671 147.079 493.192 146.601 492.851C146.139 492.492 145.55 492.312 144.832 492.312C144.115 492.312 143.517 492.569 143.038 493.081C142.577 493.577 142.346 494.252 142.346 495.106V497.438C142.346 498.293 142.577 498.976 143.038 499.489C143.517 499.984 144.115 500.232 144.832 500.232Z" fill="white"/>
</g>
<defs>
<linearGradient id="paint0_linear_35_1185" x1="414.77" y1="443.936" x2="318.071" y2="443.936" gradientUnits="userSpaceOnUse">
<stop stop-color="#FF8E29"/>
<stop offset="1" stop-color="#FFB26D"/>
</linearGradient>
<linearGradient id="paint1_linear_35_1185" x1="350.77" y1="6.5" x2="-0.230469" y2="206.5" gradientUnits="userSpaceOnUse">
<stop stop-color="#FA7C0B"/>
<stop offset="1" stop-color="#FFBE85"/>
</linearGradient>
<linearGradient id="paint2_linear_35_1185" x1="101.27" y1="86" x2="-18.2305" y2="345" gradientUnits="userSpaceOnUse">
<stop stop-color="#FF8B23"/>
<stop offset="1" stop-color="#FAB67A"/>
</linearGradient>
<clipPath id="clip0_35_1185">
<rect width="480" height="560" fill="white"/>
</clipPath>
</defs>
</svg>
