<svg width="480" height="560" viewBox="0 0 480 560" fill="none" xmlns="http://www.w3.org/2000/svg">
<g clip-path="url(#clip0_33_1294)">
<rect width="480" height="560" fill="#FF8E29"/>
<circle cx="364.77" cy="445" r="50" fill="url(#paint0_linear_33_1294)"/>
<circle cx="199.77" cy="99" r="200" fill="url(#paint1_linear_33_1294)"/>
<circle cx="-18.2305" cy="170" r="175" fill="url(#paint2_linear_33_1294)"/>
<path d="M62.4564 429.67H55.6388V437H51.743V419.11H55.6388V426.235H62.4564V419.11H66.3521V437H62.4564V429.67ZM75.6977 437.308C74.6725 437.308 73.7583 437.145 72.9553 436.821C72.1522 436.479 71.4687 436.009 70.9049 435.411C70.3581 434.796 69.9395 434.053 69.649 433.181C69.3756 432.31 69.2389 431.336 69.2389 430.259C69.2389 429.2 69.3756 428.243 69.649 427.389C69.9224 426.517 70.3239 425.774 70.8536 425.159C71.4004 424.544 72.0668 424.074 72.8528 423.749C73.6387 423.408 74.5358 423.237 75.5439 423.237C76.6545 423.237 77.6028 423.425 78.3888 423.801C79.1919 424.176 79.8412 424.681 80.3367 425.313C80.8493 425.945 81.2167 426.68 81.4388 427.517C81.678 428.337 81.7976 429.2 81.7976 430.106V431.233H73.1603V431.438C73.1603 432.327 73.3995 433.036 73.878 433.566C74.3564 434.078 75.1082 434.334 76.1334 434.334C76.9194 434.334 77.5601 434.181 78.0556 433.873C78.5512 433.548 79.0125 433.164 79.4397 432.72L81.3363 435.078C80.7382 435.778 79.9523 436.325 78.9783 436.718C78.0215 437.111 76.9279 437.308 75.6977 437.308ZM75.6208 426.03C74.8519 426.03 74.2453 426.287 73.8011 426.799C73.3739 427.295 73.1603 427.961 73.1603 428.798V429.003H77.8762V428.773C77.8762 427.953 77.6883 427.295 77.3124 426.799C76.9536 426.287 76.3897 426.03 75.6208 426.03ZM92.5286 423.544H96.0655L90.8883 439.076C90.5465 440.118 90.0596 440.887 89.4274 441.383C88.8122 441.878 87.9237 442.126 86.7618 442.126H84.4039V439.179H86.9412L87.4026 437.692L82.6867 423.544H86.4543L88.4278 429.824L89.4017 433.719H89.5555L90.5551 429.824L92.5286 423.544ZM55.6388 470H51.743V452.11H60.2266C61.0467 452.11 61.79 452.247 62.4564 452.52C63.1228 452.794 63.6866 453.187 64.148 453.699C64.6264 454.195 64.9938 454.793 65.2501 455.493C65.5064 456.194 65.6345 456.971 65.6345 457.826C65.6345 459.039 65.3611 460.098 64.8143 461.004C64.2847 461.909 63.473 462.567 62.3795 462.977L65.8908 470H61.5593L58.4325 463.439H55.6388V470ZM59.7396 460.158C60.3205 460.158 60.7733 460.013 61.098 459.722C61.4397 459.415 61.6106 458.971 61.6106 458.39V457.262C61.6106 456.681 61.4397 456.245 61.098 455.955C60.7733 455.647 60.3205 455.493 59.7396 455.493H55.6388V460.158H59.7396ZM74.0457 470.308C73.0205 470.308 72.1064 470.145 71.3033 469.821C70.5003 469.479 69.8168 469.009 69.2529 468.411C68.7062 467.796 68.2875 467.053 67.9971 466.181C67.7237 465.31 67.587 464.336 67.587 463.259C67.587 462.2 67.7237 461.243 67.9971 460.389C68.2705 459.517 68.672 458.774 69.2017 458.159C69.7485 457.544 70.4148 457.074 71.2008 456.749C71.9868 456.408 72.8839 456.237 73.892 456.237C75.0026 456.237 75.9509 456.425 76.7369 456.801C77.54 457.176 78.1893 457.681 78.6848 458.313C79.1974 458.945 79.5647 459.68 79.7869 460.517C80.0261 461.337 80.1457 462.2 80.1457 463.106V464.233H71.5084V464.438C71.5084 465.327 71.7476 466.036 72.226 466.566C72.7044 467.078 73.4563 467.334 74.4815 467.334C75.2674 467.334 75.9082 467.181 76.4037 466.873C76.8992 466.548 77.3606 466.164 77.7877 465.72L79.6843 468.078C79.0863 468.778 78.3003 469.325 77.3264 469.718C76.3695 470.111 75.276 470.308 74.0457 470.308ZM73.9689 459.03C73.2 459.03 72.5934 459.287 72.1491 459.799C71.722 460.295 71.5084 460.961 71.5084 461.798V462.003H76.2243V461.773C76.2243 460.953 76.0363 460.295 75.6604 459.799C75.3016 459.287 74.7378 459.03 73.9689 459.03ZM87.3868 470.308C86.0882 470.308 84.9946 470.103 84.1061 469.692C83.2176 469.265 82.4231 468.667 81.7225 467.898L83.9523 465.643C84.4308 466.173 84.9605 466.591 85.5414 466.899C86.1223 467.206 86.7802 467.36 87.5149 467.36C88.2667 467.36 88.7879 467.249 89.0783 467.027C89.3688 466.788 89.5141 466.472 89.5141 466.079C89.5141 465.446 89.0613 465.07 88.1557 464.951L86.6948 464.771C83.6704 464.396 82.1582 463.012 82.1582 460.619C82.1582 459.97 82.2778 459.381 82.5171 458.851C82.7734 458.304 83.1236 457.843 83.5679 457.467C84.0292 457.074 84.576 456.775 85.2082 456.57C85.8575 456.348 86.5837 456.237 87.3868 456.237C88.0873 456.237 88.7024 456.288 89.2321 456.39C89.7789 456.476 90.2573 456.613 90.6674 456.801C91.0946 456.971 91.479 457.194 91.8208 457.467C92.1796 457.723 92.5298 458.014 92.8716 458.338L90.693 460.568C90.2659 460.141 89.7789 459.808 89.2321 459.569C88.7024 459.312 88.1557 459.184 87.5918 459.184C86.9425 459.184 86.4812 459.287 86.2078 459.492C85.9344 459.697 85.7977 459.97 85.7977 460.312C85.7977 460.671 85.8917 460.953 86.0796 461.158C86.2847 461.346 86.6606 461.482 87.2074 461.568L88.7195 461.773C91.6755 462.166 93.1535 463.516 93.1535 465.822C93.1535 466.472 93.0168 467.07 92.7434 467.616C92.47 468.163 92.0771 468.642 91.5645 469.052C91.0689 469.445 90.4624 469.752 89.7447 469.974C89.0442 470.196 88.2582 470.308 87.3868 470.308ZM101.353 470.308C100.328 470.308 99.4134 470.145 98.6103 469.821C97.8072 469.479 97.1238 469.009 96.5599 468.411C96.0131 467.796 95.5945 467.053 95.304 466.181C95.0306 465.31 94.8939 464.336 94.8939 463.259C94.8939 462.2 95.0306 461.243 95.304 460.389C95.5774 459.517 95.979 458.774 96.5086 458.159C97.0554 457.544 97.7218 457.074 98.5078 456.749C99.2938 456.408 100.191 456.237 101.199 456.237C102.31 456.237 103.258 456.425 104.044 456.801C104.847 457.176 105.496 457.681 105.992 458.313C106.504 458.945 106.872 459.68 107.094 460.517C107.333 461.337 107.453 462.2 107.453 463.106V464.233H98.8153V464.438C98.8153 465.327 99.0546 466.036 99.533 466.566C100.011 467.078 100.763 467.334 101.788 467.334C102.574 467.334 103.215 467.181 103.711 466.873C104.206 466.548 104.668 466.164 105.095 465.72L106.991 468.078C106.393 468.778 105.607 469.325 104.633 469.718C103.676 470.111 102.583 470.308 101.353 470.308ZM101.276 459.03C100.507 459.03 99.9003 459.287 99.4561 459.799C99.0289 460.295 98.8153 460.961 98.8153 461.798V462.003H103.531V461.773C103.531 460.953 103.343 460.295 102.967 459.799C102.609 459.287 102.045 459.03 101.276 459.03ZM114.848 470C113.532 470 112.532 469.667 111.849 469C111.182 468.334 110.849 467.36 110.849 466.079V459.492H108.953V456.544H109.901C110.414 456.544 110.764 456.425 110.952 456.185C111.14 455.929 111.234 455.57 111.234 455.109V452.905H114.642V456.544H117.308V459.492H114.642V467.053H117.103V470H114.848ZM51.743 503V485.11H60.2009C61.0382 485.11 61.79 485.255 62.4564 485.546C63.1228 485.819 63.6866 486.204 64.148 486.699C64.6264 487.195 64.9938 487.801 65.2501 488.519C65.5064 489.22 65.6345 489.989 65.6345 490.826C65.6345 491.68 65.5064 492.458 65.2501 493.158C64.9938 493.859 64.6264 494.457 64.148 494.952C63.6866 495.448 63.1228 495.841 62.4564 496.131C61.79 496.405 61.0382 496.541 60.2009 496.541H55.6388V503H51.743ZM55.6388 493.158H59.7396C60.3205 493.158 60.7733 493.013 61.098 492.722C61.4397 492.415 61.6106 491.971 61.6106 491.39V490.262C61.6106 489.681 61.4397 489.245 61.098 488.955C60.7733 488.647 60.3205 488.493 59.7396 488.493H55.6388V493.158ZM77.9267 503C77.2432 503 76.6708 502.786 76.2095 502.359C75.7652 501.932 75.4833 501.36 75.3637 500.642H75.2099C75.0049 501.513 74.5521 502.18 73.8515 502.641C73.151 503.085 72.2881 503.308 71.2629 503.308C69.913 503.308 68.8793 502.949 68.1617 502.231C67.444 501.513 67.0852 500.565 67.0852 499.386C67.0852 497.968 67.5978 496.917 68.623 496.234C69.6653 495.533 71.0749 495.183 72.8519 495.183H74.9792V494.337C74.9792 493.688 74.8084 493.175 74.4666 492.799C74.1249 492.406 73.5525 492.21 72.7494 492.21C71.9976 492.21 71.3996 492.372 70.9553 492.697C70.5111 493.021 70.1437 493.389 69.8532 493.799L67.5978 491.8C68.1446 490.997 68.828 490.373 69.6482 489.929C70.4854 489.467 71.6132 489.237 73.0314 489.237C74.9451 489.237 76.3803 489.655 77.3372 490.493C78.2941 491.33 78.7725 492.552 78.7725 494.158V500.053H80.0283V503H77.9267ZM72.6725 500.668C73.3047 500.668 73.843 500.531 74.2872 500.258C74.7486 499.984 74.9792 499.54 74.9792 498.925V497.336H73.1339C71.6473 497.336 70.9041 497.84 70.9041 498.848V499.232C70.9041 499.728 71.0578 500.095 71.3654 500.334C71.673 500.557 72.1087 500.668 72.6725 500.668ZM87.1365 503.308C85.8379 503.308 84.7443 503.103 83.8558 502.692C82.9673 502.265 82.1728 501.667 81.4722 500.898L83.702 498.643C84.1805 499.173 84.7102 499.591 85.2911 499.899C85.8721 500.206 86.5299 500.36 87.2646 500.36C88.0164 500.36 88.5376 500.249 88.828 500.027C89.1185 499.788 89.2638 499.472 89.2638 499.079C89.2638 498.446 88.811 498.07 87.9054 497.951L86.4445 497.771C83.4201 497.396 81.9079 496.012 81.9079 493.619C81.9079 492.97 82.0276 492.381 82.2668 491.851C82.5231 491.304 82.8733 490.843 83.3176 490.467C83.7789 490.074 84.3257 489.775 84.9579 489.57C85.6072 489.348 86.3334 489.237 87.1365 489.237C87.837 489.237 88.4521 489.288 88.9818 489.39C89.5286 489.476 90.007 489.613 90.4171 489.801C90.8443 489.971 91.2287 490.194 91.5705 490.467C91.9293 490.723 92.2796 491.014 92.6213 491.338L90.4427 493.568C90.0156 493.141 89.5286 492.808 88.9818 492.569C88.4521 492.312 87.9054 492.184 87.3415 492.184C86.6922 492.184 86.2309 492.287 85.9575 492.492C85.6841 492.697 85.5474 492.97 85.5474 493.312C85.5474 493.671 85.6414 493.953 85.8293 494.158C86.0344 494.346 86.4103 494.482 86.9571 494.568L88.4692 494.773C91.4252 495.166 92.9032 496.516 92.9032 498.822C92.9032 499.472 92.7665 500.07 92.4931 500.616C92.2198 501.163 91.8268 501.642 91.3142 502.052C90.8186 502.445 90.2121 502.752 89.4944 502.974C88.7939 503.196 88.0079 503.308 87.1365 503.308ZM99.8764 503.308C98.5778 503.308 97.4842 503.103 96.5957 502.692C95.7072 502.265 94.9127 501.667 94.2121 500.898L96.442 498.643C96.9204 499.173 97.4501 499.591 98.031 499.899C98.612 500.206 99.2698 500.36 100.005 500.36C100.756 500.36 101.277 500.249 101.568 500.027C101.858 499.788 102.004 499.472 102.004 499.079C102.004 498.446 101.551 498.07 100.645 497.951L99.1844 497.771C96.16 497.396 94.6479 496.012 94.6479 493.619C94.6479 492.97 94.7675 492.381 95.0067 491.851C95.263 491.304 95.6133 490.843 96.0575 490.467C96.5188 490.074 97.0656 489.775 97.6978 489.57C98.3471 489.348 99.0733 489.237 99.8764 489.237C100.577 489.237 101.192 489.288 101.722 489.39C102.269 489.476 102.747 489.613 103.157 489.801C103.584 489.971 103.969 490.194 104.31 490.467C104.669 490.723 105.019 491.014 105.361 491.338L103.183 493.568C102.755 493.141 102.269 492.808 101.722 492.569C101.192 492.312 100.645 492.184 100.081 492.184C99.4321 492.184 98.9708 492.287 98.6974 492.492C98.424 492.697 98.2873 492.97 98.2873 493.312C98.2873 493.671 98.3813 493.953 98.5692 494.158C98.7743 494.346 99.1502 494.482 99.697 494.568L101.209 494.773C104.165 495.166 105.643 496.516 105.643 498.822C105.643 499.472 105.506 500.07 105.233 500.616C104.96 501.163 104.567 501.642 104.054 502.052C103.559 502.445 102.952 502.752 102.234 502.974C101.534 503.196 100.748 503.308 99.8764 503.308ZM106.698 489.544H110.363L111.67 494.978L112.592 499.079H112.695L113.771 494.978L115.309 489.544H118.769L120.333 494.978L121.435 499.079H121.537L122.46 494.978L123.767 489.544H127.278L123.562 503H119.589L117.949 497.31L117.001 493.824H116.924L116.001 497.31L114.361 503H110.465L106.698 489.544ZM134.738 503.308C133.747 503.308 132.859 503.145 132.073 502.821C131.304 502.496 130.646 502.026 130.099 501.411C129.569 500.796 129.159 500.053 128.869 499.181C128.578 498.31 128.433 497.336 128.433 496.259C128.433 495.183 128.578 494.209 128.869 493.337C129.159 492.466 129.569 491.731 130.099 491.133C130.646 490.518 131.304 490.048 132.073 489.724C132.859 489.399 133.747 489.237 134.738 489.237C135.729 489.237 136.609 489.399 137.378 489.724C138.164 490.048 138.822 490.518 139.352 491.133C139.898 491.731 140.317 492.466 140.607 493.337C140.898 494.209 141.043 495.183 141.043 496.259C141.043 497.336 140.898 498.31 140.607 499.181C140.317 500.053 139.898 500.796 139.352 501.411C138.822 502.026 138.164 502.496 137.378 502.821C136.609 503.145 135.729 503.308 134.738 503.308ZM134.738 500.309C135.49 500.309 136.071 500.078 136.481 499.617C136.891 499.155 137.096 498.498 137.096 497.643V494.901C137.096 494.047 136.891 493.389 136.481 492.927C136.071 492.466 135.49 492.235 134.738 492.235C133.986 492.235 133.405 492.466 132.995 492.927C132.585 493.389 132.38 494.047 132.38 494.901V497.643C132.38 498.498 132.585 499.155 132.995 499.617C133.405 500.078 133.986 500.309 134.738 500.309ZM143.746 503V489.544H147.539V492.466H147.667C147.736 492.09 147.855 491.731 148.026 491.39C148.197 491.031 148.419 490.715 148.693 490.441C148.983 490.168 149.325 489.954 149.718 489.801C150.111 489.63 150.572 489.544 151.102 489.544H151.768V493.081H150.82C149.709 493.081 148.88 493.226 148.334 493.517C147.804 493.807 147.539 494.346 147.539 495.132V503H143.746ZM162.261 500.745H162.133C162.03 501.103 161.868 501.445 161.646 501.77C161.424 502.077 161.15 502.351 160.826 502.59C160.518 502.812 160.159 502.983 159.749 503.103C159.356 503.239 158.946 503.308 158.519 503.308C156.81 503.308 155.52 502.71 154.649 501.513C153.777 500.3 153.342 498.549 153.342 496.259C153.342 493.97 153.777 492.227 154.649 491.031C155.52 489.835 156.81 489.237 158.519 489.237C159.39 489.237 160.159 489.476 160.826 489.954C161.509 490.433 161.945 491.048 162.133 491.8H162.261V484.034H166.054V503H162.261V500.745ZM159.775 500.232C160.492 500.232 161.082 500.061 161.543 499.719C162.022 499.361 162.261 498.874 162.261 498.258V494.286C162.261 493.671 162.022 493.192 161.543 492.851C161.082 492.492 160.492 492.312 159.775 492.312C159.057 492.312 158.459 492.569 157.981 493.081C157.519 493.577 157.289 494.252 157.289 495.106V497.438C157.289 498.293 157.519 498.976 157.981 499.489C158.459 499.984 159.057 500.232 159.775 500.232Z" fill="white"/>
</g>
<defs>
<linearGradient id="paint0_linear_33_1294" x1="414.77" y1="443.936" x2="318.071" y2="443.936" gradientUnits="userSpaceOnUse">
<stop stop-color="#FF8E29"/>
<stop offset="1" stop-color="#FFB26D"/>
</linearGradient>
<linearGradient id="paint1_linear_33_1294" x1="350.77" y1="6.5" x2="-0.230469" y2="206.5" gradientUnits="userSpaceOnUse">
<stop stop-color="#FA7C0B"/>
<stop offset="1" stop-color="#FFBE85"/>
</linearGradient>
<linearGradient id="paint2_linear_33_1294" x1="101.27" y1="86" x2="-18.2305" y2="345" gradientUnits="userSpaceOnUse">
<stop stop-color="#FF8B23"/>
<stop offset="1" stop-color="#FAB67A"/>
</linearGradient>
<clipPath id="clip0_33_1294">
<rect width="480" height="560" fill="white"/>
</clipPath>
</defs>
</svg>
