<svg width="480" height="590" viewBox="0 0 480 590" fill="none" xmlns="http://www.w3.org/2000/svg">
<g clip-path="url(#clip0_33_1235)">
<rect width="480" height="591" fill="#FF8E29"/>
<circle cx="364.77" cy="445" r="50" fill="url(#paint0_linear_33_1235)"/>
<circle cx="199.77" cy="99" r="200" fill="url(#paint1_linear_33_1235)"/>
<circle cx="-18.2305" cy="170" r="175" fill="url(#paint2_linear_33_1235)"/>
<path d="M62.4564 429.67H55.6388V437H51.743V419.11H55.6388V426.235H62.4564V419.11H66.3521V437H62.4564V429.67ZM75.6977 437.308C74.6725 437.308 73.7583 437.145 72.9553 436.821C72.1522 436.479 71.4687 436.009 70.9049 435.411C70.3581 434.796 69.9395 434.053 69.649 433.181C69.3756 432.31 69.2389 431.336 69.2389 430.259C69.2389 429.2 69.3756 428.243 69.649 427.389C69.9224 426.517 70.3239 425.774 70.8536 425.159C71.4004 424.544 72.0668 424.074 72.8528 423.749C73.6387 423.408 74.5358 423.237 75.5439 423.237C76.6545 423.237 77.6028 423.425 78.3888 423.801C79.1919 424.176 79.8412 424.681 80.3367 425.313C80.8493 425.945 81.2167 426.68 81.4388 427.517C81.678 428.337 81.7976 429.2 81.7976 430.106V431.233H73.1603V431.438C73.1603 432.327 73.3995 433.036 73.878 433.566C74.3564 434.078 75.1082 434.334 76.1334 434.334C76.9194 434.334 77.5601 434.181 78.0556 433.873C78.5512 433.548 79.0125 433.164 79.4397 432.72L81.3363 435.078C80.7382 435.778 79.9523 436.325 78.9783 436.718C78.0215 437.111 76.9279 437.308 75.6977 437.308ZM75.6208 426.03C74.8519 426.03 74.2453 426.287 73.8011 426.799C73.3739 427.295 73.1603 427.961 73.1603 428.798V429.003H77.8762V428.773C77.8762 427.953 77.6883 427.295 77.3124 426.799C76.9536 426.287 76.3897 426.03 75.6208 426.03ZM92.5286 423.544H96.0655L90.8883 439.076C90.5465 440.118 90.0596 440.887 89.4274 441.383C88.8122 441.878 87.9237 442.126 86.7618 442.126H84.4039V439.179H86.9412L87.4026 437.692L82.6867 423.544H86.4543L88.4278 429.824L89.4017 433.719H89.5555L90.5551 429.824L92.5286 423.544ZM55.6388 470H51.743V452.11H60.2266C61.0467 452.11 61.79 452.247 62.4564 452.52C63.1228 452.794 63.6866 453.187 64.148 453.699C64.6264 454.195 64.9938 454.793 65.2501 455.493C65.5064 456.194 65.6345 456.971 65.6345 457.826C65.6345 459.039 65.3611 460.098 64.8143 461.004C64.2847 461.909 63.473 462.567 62.3795 462.977L65.8908 470H61.5593L58.4325 463.439H55.6388V470ZM59.7396 460.158C60.3205 460.158 60.7733 460.013 61.098 459.722C61.4397 459.415 61.6106 458.971 61.6106 458.39V457.262C61.6106 456.681 61.4397 456.245 61.098 455.955C60.7733 455.647 60.3205 455.493 59.7396 455.493H55.6388V460.158H59.7396ZM74.0457 470.308C73.0205 470.308 72.1064 470.145 71.3033 469.821C70.5003 469.479 69.8168 469.009 69.2529 468.411C68.7062 467.796 68.2875 467.053 67.9971 466.181C67.7237 465.31 67.587 464.336 67.587 463.259C67.587 462.2 67.7237 461.243 67.9971 460.389C68.2705 459.517 68.672 458.774 69.2017 458.159C69.7485 457.544 70.4148 457.074 71.2008 456.749C71.9868 456.408 72.8839 456.237 73.892 456.237C75.0026 456.237 75.9509 456.425 76.7369 456.801C77.54 457.176 78.1893 457.681 78.6848 458.313C79.1974 458.945 79.5647 459.68 79.7869 460.517C80.0261 461.337 80.1457 462.2 80.1457 463.106V464.233H71.5084V464.438C71.5084 465.327 71.7476 466.036 72.226 466.566C72.7044 467.078 73.4563 467.334 74.4815 467.334C75.2674 467.334 75.9082 467.181 76.4037 466.873C76.8992 466.548 77.3606 466.164 77.7877 465.72L79.6843 468.078C79.0863 468.778 78.3003 469.325 77.3264 469.718C76.3695 470.111 75.276 470.308 74.0457 470.308ZM73.9689 459.03C73.2 459.03 72.5934 459.287 72.1491 459.799C71.722 460.295 71.5084 460.961 71.5084 461.798V462.003H76.2243V461.773C76.2243 460.953 76.0363 460.295 75.6604 459.799C75.3016 459.287 74.7378 459.03 73.9689 459.03ZM95.2808 470.974C95.2808 471.692 95.1527 472.324 94.8964 472.871C94.6571 473.417 94.2556 473.879 93.6917 474.255C93.1279 474.648 92.3761 474.938 91.4363 475.126C90.5136 475.331 89.3688 475.434 88.0019 475.434C86.84 475.434 85.849 475.357 85.0288 475.203C84.2257 475.066 83.5679 474.861 83.0553 474.588C82.5598 474.331 82.1924 474.007 81.9532 473.614C81.7311 473.238 81.62 472.802 81.62 472.307C81.62 471.555 81.8421 470.965 82.2864 470.538C82.7306 470.111 83.3458 469.846 84.1318 469.744V469.462C83.4825 469.342 82.9955 469.069 82.6708 468.642C82.3462 468.197 82.1839 467.685 82.1839 467.104C82.1839 466.745 82.2522 466.437 82.3889 466.181C82.5427 465.908 82.7306 465.677 82.9528 465.489C83.192 465.284 83.4654 465.122 83.7729 465.002C84.0805 464.883 84.3881 464.789 84.6956 464.72V464.618C83.8755 464.242 83.2689 463.729 82.8759 463.08C82.4829 462.414 82.2864 461.645 82.2864 460.773C82.2864 459.406 82.7563 458.313 83.696 457.493C84.6529 456.655 86.1053 456.237 88.0531 456.237C88.9416 456.237 89.702 456.322 90.3342 456.493V455.98C90.3342 455.263 90.5051 454.75 90.8468 454.443C91.2056 454.118 91.7097 453.956 92.359 453.956H94.4863V456.775H91.5132V456.929C92.2992 457.305 92.8801 457.826 93.256 458.492C93.6319 459.141 93.8199 459.902 93.8199 460.773C93.8199 462.123 93.3415 463.208 92.3846 464.028C91.4448 464.831 90.001 465.233 88.0531 465.233C87.1817 465.233 86.3872 465.139 85.6696 464.951C85.2766 465.207 85.0801 465.566 85.0801 466.027C85.0801 466.352 85.1997 466.608 85.4389 466.796C85.6952 466.967 86.1138 467.053 86.6948 467.053H90.5905C92.2308 467.053 93.4184 467.394 94.1531 468.078C94.9049 468.761 95.2808 469.727 95.2808 470.974ZM91.7182 471.487C91.7182 471.094 91.5645 470.795 91.2569 470.589C90.9493 470.384 90.4111 470.282 89.6422 470.282H85.0288C84.8579 470.453 84.7298 470.641 84.6444 470.846C84.576 471.068 84.5418 471.282 84.5418 471.487C84.5418 471.982 84.7554 472.341 85.1826 472.563C85.6097 472.802 86.3359 472.922 87.3611 472.922H88.8989C89.9241 472.922 90.6503 472.802 91.0775 472.563C91.5046 472.341 91.7182 471.982 91.7182 471.487ZM88.0531 462.747C88.805 462.747 89.3603 462.593 89.7191 462.285C90.095 461.961 90.283 461.499 90.283 460.901V460.594C90.283 459.996 90.095 459.543 89.7191 459.235C89.3603 458.911 88.805 458.748 88.0531 458.748C87.3013 458.748 86.7375 458.911 86.3616 459.235C86.0027 459.543 85.8233 459.996 85.8233 460.594V460.901C85.8233 461.499 86.0027 461.961 86.3616 462.285C86.7375 462.593 87.3013 462.747 88.0531 462.747ZM98.8628 455.109C98.0939 455.109 97.53 454.938 97.1712 454.596C96.8295 454.238 96.6586 453.785 96.6586 453.238V452.674C96.6586 452.127 96.8295 451.683 97.1712 451.341C97.53 450.983 98.0939 450.803 98.8628 450.803C99.6317 450.803 100.187 450.983 100.529 451.341C100.888 451.683 101.067 452.127 101.067 452.674V453.238C101.067 453.785 100.888 454.238 100.529 454.596C100.187 454.938 99.6317 455.109 98.8628 455.109ZM96.9662 456.544H100.759V470H96.9662V456.544ZM108.862 470.308C107.563 470.308 106.47 470.103 105.581 469.692C104.693 469.265 103.898 468.667 103.198 467.898L105.427 465.643C105.906 466.173 106.436 466.591 107.017 466.899C107.597 467.206 108.255 467.36 108.99 467.36C109.742 467.36 110.263 467.249 110.553 467.027C110.844 466.788 110.989 466.472 110.989 466.079C110.989 465.446 110.536 465.07 109.631 464.951L108.17 464.771C105.146 464.396 103.633 463.012 103.633 460.619C103.633 459.97 103.753 459.381 103.992 458.851C104.248 458.304 104.599 457.843 105.043 457.467C105.504 457.074 106.051 456.775 106.683 456.57C107.333 456.348 108.059 456.237 108.862 456.237C109.562 456.237 110.178 456.288 110.707 456.39C111.254 456.476 111.732 456.613 112.143 456.801C112.57 456.971 112.954 457.194 113.296 457.467C113.655 457.723 114.005 458.014 114.347 458.338L112.168 460.568C111.741 460.141 111.254 459.808 110.707 459.569C110.178 459.312 109.631 459.184 109.067 459.184C108.418 459.184 107.956 459.287 107.683 459.492C107.41 459.697 107.273 459.97 107.273 460.312C107.273 460.671 107.367 460.953 107.555 461.158C107.76 461.346 108.136 461.482 108.682 461.568L110.195 461.773C113.151 462.166 114.629 463.516 114.629 465.822C114.629 466.472 114.492 467.07 114.219 467.616C113.945 468.163 113.552 468.642 113.04 469.052C112.544 469.445 111.937 469.752 111.22 469.974C110.519 470.196 109.733 470.308 108.862 470.308ZM121.731 470C120.415 470 119.415 469.667 118.732 469C118.065 468.334 117.732 467.36 117.732 466.079V459.492H115.836V456.544H116.784C117.297 456.544 117.647 456.425 117.835 456.185C118.023 455.929 118.117 455.57 118.117 455.109V452.905H121.526V456.544H124.191V459.492H121.526V467.053H123.986V470H121.731ZM132.339 470.308C131.314 470.308 130.4 470.145 129.597 469.821C128.793 469.479 128.11 469.009 127.546 468.411C126.999 467.796 126.581 467.053 126.29 466.181C126.017 465.31 125.88 464.336 125.88 463.259C125.88 462.2 126.017 461.243 126.29 460.389C126.564 459.517 126.965 458.774 127.495 458.159C128.042 457.544 128.708 457.074 129.494 456.749C130.28 456.408 131.177 456.237 132.185 456.237C133.296 456.237 134.244 456.425 135.03 456.801C135.833 457.176 136.482 457.681 136.978 458.313C137.491 458.945 137.858 459.68 138.08 460.517C138.319 461.337 138.439 462.2 138.439 463.106V464.233H129.802V464.438C129.802 465.327 130.041 466.036 130.519 466.566C130.998 467.078 131.749 467.334 132.775 467.334C133.561 467.334 134.201 467.181 134.697 466.873C135.192 466.548 135.654 466.164 136.081 465.72L137.978 468.078C137.38 468.778 136.594 469.325 135.62 469.718C134.663 470.111 133.569 470.308 132.339 470.308ZM132.262 459.03C131.493 459.03 130.887 459.287 130.442 459.799C130.015 460.295 129.802 460.961 129.802 461.798V462.003H134.518V461.773C134.518 460.953 134.33 460.295 133.954 459.799C133.595 459.287 133.031 459.03 132.262 459.03ZM141.118 470V456.544H144.911V459.466H145.039C145.108 459.09 145.227 458.731 145.398 458.39C145.569 458.031 145.791 457.715 146.064 457.441C146.355 457.168 146.697 456.954 147.09 456.801C147.483 456.63 147.944 456.544 148.474 456.544H149.14V460.081H148.192C147.081 460.081 146.252 460.226 145.706 460.517C145.176 460.807 144.911 461.346 144.911 462.132V470H141.118ZM56.1258 503V496.003L50.0002 485.11H54.3573L58.2018 492.235H58.2531L61.9438 485.11H66.1727L60.0472 495.977V503H56.1258ZM72.1149 503.308C71.1239 503.308 70.2354 503.145 69.4494 502.821C68.6805 502.496 68.0226 502.026 67.4759 501.411C66.9462 500.796 66.5361 500.053 66.2456 499.181C65.9551 498.31 65.8099 497.336 65.8099 496.259C65.8099 495.183 65.9551 494.209 66.2456 493.337C66.5361 492.466 66.9462 491.731 67.4759 491.133C68.0226 490.518 68.6805 490.048 69.4494 489.724C70.2354 489.399 71.1239 489.237 72.1149 489.237C73.1059 489.237 73.9859 489.399 74.7548 489.724C75.5408 490.048 76.1986 490.518 76.7283 491.133C77.2751 491.731 77.6937 492.466 77.9842 493.337C78.2746 494.209 78.4199 495.183 78.4199 496.259C78.4199 497.336 78.2746 498.31 77.9842 499.181C77.6937 500.053 77.2751 500.796 76.7283 501.411C76.1986 502.026 75.5408 502.496 74.7548 502.821C73.9859 503.145 73.1059 503.308 72.1149 503.308ZM72.1149 500.309C72.8667 500.309 73.4476 500.078 73.8577 499.617C74.2678 499.155 74.4728 498.498 74.4728 497.643V494.901C74.4728 494.047 74.2678 493.389 73.8577 492.927C73.4476 492.466 72.8667 492.235 72.1149 492.235C71.3631 492.235 70.7821 492.466 70.372 492.927C69.962 493.389 69.7569 494.047 69.7569 494.901V497.643C69.7569 498.498 69.962 499.155 70.372 499.617C70.7821 500.078 71.3631 500.309 72.1149 500.309ZM89.0679 500.745H88.9398C88.8202 501.086 88.6579 501.411 88.4528 501.719C88.2649 502.026 88.0171 502.299 87.7095 502.539C87.402 502.778 87.0346 502.966 86.6075 503.103C86.1974 503.239 85.7189 503.308 85.1722 503.308C83.7882 503.308 82.7373 502.855 82.0197 501.949C81.3191 501.026 80.9689 499.711 80.9689 498.002V489.544H84.7621V497.669C84.7621 498.489 84.9073 499.121 85.1978 499.566C85.4883 500.01 85.9838 500.232 86.6843 500.232C86.9748 500.232 87.2653 500.189 87.5558 500.104C87.8462 500.018 88.1025 499.899 88.3247 499.745C88.5468 499.574 88.7262 499.369 88.8629 499.13C88.9996 498.891 89.0679 498.609 89.0679 498.284V489.544H92.8612V503H89.0679V500.745ZM96.3905 503V489.544H100.184V492.466H100.312C100.38 492.09 100.5 491.731 100.671 491.39C100.842 491.031 101.064 490.715 101.337 490.441C101.628 490.168 101.969 489.954 102.362 489.801C102.755 489.63 103.217 489.544 103.746 489.544H104.413V493.081H103.464C102.354 493.081 101.525 493.226 100.978 493.517C100.449 493.807 100.184 494.346 100.184 495.132V503H96.3905ZM111.315 503.308C110.016 503.308 108.923 503.103 108.034 502.692C107.146 502.265 106.351 501.667 105.651 500.898L107.88 498.643C108.359 499.173 108.888 499.591 109.469 499.899C110.05 500.206 110.708 500.36 111.443 500.36C112.195 500.36 112.716 500.249 113.006 500.027C113.297 499.788 113.442 499.472 113.442 499.079C113.442 498.446 112.989 498.07 112.084 497.951L110.623 497.771C107.598 497.396 106.086 496.012 106.086 493.619C106.086 492.97 106.206 492.381 106.445 491.851C106.701 491.304 107.052 490.843 107.496 490.467C107.957 490.074 108.504 489.775 109.136 489.57C109.786 489.348 110.512 489.237 111.315 489.237C112.015 489.237 112.63 489.288 113.16 489.39C113.707 489.476 114.185 489.613 114.595 489.801C115.023 489.971 115.407 490.194 115.749 490.467C116.108 490.723 116.458 491.014 116.8 491.338L114.621 493.568C114.194 493.141 113.707 492.808 113.16 492.569C112.63 492.312 112.084 492.184 111.52 492.184C110.871 492.184 110.409 492.287 110.136 492.492C109.862 492.697 109.726 492.97 109.726 493.312C109.726 493.671 109.82 493.953 110.008 494.158C110.213 494.346 110.589 494.482 111.135 494.568L112.648 494.773C115.604 495.166 117.082 496.516 117.082 498.822C117.082 499.472 116.945 500.07 116.671 500.616C116.398 501.163 116.005 501.642 115.492 502.052C114.997 502.445 114.39 502.752 113.673 502.974C112.972 503.196 112.186 503.308 111.315 503.308ZM125.281 503.308C124.256 503.308 123.341 503.145 122.538 502.821C121.735 502.479 121.052 502.009 120.488 501.411C119.941 500.796 119.523 500.053 119.232 499.181C118.959 498.31 118.822 497.336 118.822 496.259C118.822 495.2 118.959 494.243 119.232 493.389C119.505 492.517 119.907 491.774 120.437 491.159C120.983 490.544 121.65 490.074 122.436 489.749C123.222 489.408 124.119 489.237 125.127 489.237C126.238 489.237 127.186 489.425 127.972 489.801C128.775 490.176 129.424 490.681 129.92 491.313C130.432 491.945 130.8 492.68 131.022 493.517C131.261 494.337 131.381 495.2 131.381 496.106V497.233H122.743V497.438C122.743 498.327 122.983 499.036 123.461 499.566C123.939 500.078 124.691 500.334 125.716 500.334C126.502 500.334 127.143 500.181 127.639 499.873C128.134 499.548 128.596 499.164 129.023 498.72L130.919 501.078C130.321 501.778 129.535 502.325 128.561 502.718C127.605 503.111 126.511 503.308 125.281 503.308ZM125.204 492.03C124.435 492.03 123.828 492.287 123.384 492.799C122.957 493.295 122.743 493.961 122.743 494.798V495.003H127.459V494.773C127.459 493.953 127.271 493.295 126.895 492.799C126.537 492.287 125.973 492.03 125.204 492.03ZM137.827 503C136.529 503 135.572 502.684 134.957 502.052C134.359 501.419 134.06 500.505 134.06 499.309V484.034H137.853V500.053H139.544V503H137.827ZM142.485 492.492H140.588V489.544H142.485V487.955C142.485 486.657 142.827 485.683 143.51 485.033C144.194 484.367 145.193 484.034 146.509 484.034H148.969V486.981H146.278V489.544H148.969V492.492H146.278V503H142.485V492.492Z" fill="white"/>
</g>
<defs>
<linearGradient id="paint0_linear_33_1235" x1="414.77" y1="443.936" x2="318.071" y2="443.936" gradientUnits="userSpaceOnUse">
<stop stop-color="#FF8E29"/>
<stop offset="1" stop-color="#FFB26D"/>
</linearGradient>
<linearGradient id="paint1_linear_33_1235" x1="350.77" y1="6.5" x2="-0.230469" y2="206.5" gradientUnits="userSpaceOnUse">
<stop stop-color="#FA7C0B"/>
<stop offset="1" stop-color="#FFBE85"/>
</linearGradient>
<linearGradient id="paint2_linear_33_1235" x1="101.27" y1="86" x2="-18.2305" y2="345" gradientUnits="userSpaceOnUse">
<stop stop-color="#FF8B23"/>
<stop offset="1" stop-color="#FAB67A"/>
</linearGradient>
<clipPath id="clip0_33_1235">
<rect width="480" height="591" fill="white"/>
</clipPath>
</defs>
</svg>
