<svg width="16" height="8" viewBox="0 0 16 8" fill="none" xmlns="http://www.w3.org/2000/svg">
<path fill-rule="evenodd" clip-rule="evenodd" d="M8.536 2C9.228 0.804667 10.5207 0 12 0C14.2073 0 16 1.79267 16 4C16 6.20733 14.2073 8 12 8C10.5207 8 9.228 7.19533 8.536 6H6L4.996 4.998L4 6L3.01333 4.998L2 6L0 3.97867L1.68667 2H8.536ZM13.6667 3C14.2187 3 14.6667 3.448 14.6667 4C14.6667 4.552 14.2187 5 13.6667 5C13.1147 5 12.6667 4.552 12.6667 4C12.6667 3.448 13.1147 3 13.6667 3Z" fill="#6F757E"/>
</svg>
